<svg width="127" height="127" viewBox="0 0 127 127" fill="none" xmlns="http://www.w3.org/2000/svg">
<mask id="path-1-inside-1" fill="white">
<path fill-rule="evenodd" clip-rule="evenodd" d="M63.5 127C98.5701 127 127 98.5701 127 63.5C127 28.4299 98.5701 0 63.5 0C28.4299 0 0 28.4299 0 63.5C0 98.5701 28.4299 127 63.5 127ZM64 83C75.0457 83 84 74.0457 84 63C84 51.9543 75.0457 43 64 43C52.9543 43 44 51.9543 44 63C44 74.0457 52.9543 83 64 83Z"/>
</mask>
<path fill-rule="evenodd" clip-rule="evenodd" d="M63.5 127C98.5701 127 127 98.5701 127 63.5C127 28.4299 98.5701 0 63.5 0C28.4299 0 0 28.4299 0 63.5C0 98.5701 28.4299 127 63.5 127ZM64 83C75.0457 83 84 74.0457 84 63C84 51.9543 75.0457 43 64 43C52.9543 43 44 51.9543 44 63C44 74.0457 52.9543 83 64 83Z" fill="white"/>
<path d="M122 63.5C122 95.8087 95.8087 122 63.5 122V132C101.332 132 132 101.332 132 63.5H122ZM63.5 5C95.8087 5 122 31.1913 122 63.5H132C132 25.6685 101.332 -5 63.5 -5V5ZM5 63.5C5 31.1913 31.1913 5 63.5 5V-5C25.6685 -5 -5 25.6685 -5 63.5H5ZM63.5 122C31.1913 122 5 95.8087 5 63.5H-5C-5 101.332 25.6685 132 63.5 132V122ZM79 63C79 71.2843 72.2843 78 64 78V88C77.8071 88 89 76.8071 89 63H79ZM64 48C72.2843 48 79 54.7157 79 63H89C89 49.1929 77.8071 38 64 38V48ZM49 63C49 54.7157 55.7157 48 64 48V38C50.1929 38 39 49.1929 39 63H49ZM64 78C55.7157 78 49 71.2843 49 63H39C39 76.8071 50.1929 88 64 88V78Z" fill="white" mask="url(#path-1-inside-1)"/>
</svg>
