<svg width="273" height="273" viewBox="0 0 273 273" fill="none" xmlns="http://www.w3.org/2000/svg">
<path d="M175.119 42.3102L229.576 95.568C230.05 96.0316 230.32 96.6645 230.328 97.3275L231.175 173.493C231.183 174.156 230.927 174.795 230.463 175.269L177.205 229.726C176.742 230.2 176.109 230.47 175.446 230.477L99.2801 231.325C98.6171 231.332 97.9783 231.076 97.5043 230.613L43.0477 177.355C42.5736 176.891 42.3032 176.258 42.2958 175.595L41.4481 99.4297C41.4407 98.7667 41.697 98.1279 42.1606 97.6539L95.4184 43.1973C95.882 42.7232 96.5149 42.4528 97.1779 42.4454L173.343 41.5977C174.006 41.5903 174.645 41.8466 175.119 42.3102Z" fill="white" stroke="white" stroke-width="5" stroke-linejoin="round"/>
</svg>
